<svg width="21" height="17" viewBox="0 0 21 17" fill="none" xmlns="http://www.w3.org/2000/svg">
<path d="M1.22313 2.54489H19.8538C20.3755 2.54489 20.7983 2.12204 20.7983 1.60032C20.7983 1.07859 20.3755 0.655762 19.8538 0.655762L1.22313 0.655518C0.701396 0.655518 0.278564 1.07837 0.278564 1.60008C0.278564 2.12206 0.701415 2.54489 1.22313 2.54489Z" fill="black"/>
<path d="M19.8538 7.42554H1.22313C0.701396 7.42554 0.278564 7.84839 0.278564 8.3701C0.278564 8.89181 0.701415 9.31466 1.22313 9.31466H19.8538C20.3755 9.31466 20.7983 8.89181 20.7983 8.3701C20.7986 7.84837 20.3757 7.42554 19.8538 7.42554Z" fill="black"/>
<path d="M19.8538 14.1956H1.22313C0.701396 14.1956 0.278564 14.6184 0.278564 15.1401C0.278564 15.6619 0.701415 16.0847 1.22313 16.0847H19.8538C20.3755 16.0847 20.7983 15.6618 20.7983 15.1401C20.7986 14.6184 20.3757 14.1956 19.8538 14.1956Z" fill="black"/>
</svg>
